<?xml version="1.0" encoding="utf-8"?>
<svg xmlns="http://www.w3.org/2000/svg"
     xmlns:xlink="http://www.w3.org/1999/xlink"
     width="800" height="800"
     viewBox="-300 -300 600 600">
  <defs>
    <g id="lunita" fill="#1C274C">
      <path d="M192.006,145.833v-24.555c-30.933,14.763-55.957,39.787-70.72,70.72h24.555
				C171.292,191.998,192.006,171.283,192.006,145.833z"/>
      <path d="M145.839,320h-24.555c14.763,30.933,39.787,55.957,70.72,70.72v-24.555C192.004,340.715,171.29,320,145.839,320z"/>
      <path d="M366.174,192h24.555c-14.763-30.933-39.787-55.957-70.72-70.72v24.555C320.009,171.285,340.723,192,366.174,192z"/>
      <path d="M403.633,234.667h-37.461c-48.981,0-88.832-39.851-88.832-88.832v-37.461c-0.256-0.043-0.512-0.085-0.768-0.128
				c-13.888-2.027-27.243-2.027-41.131,0c-0.256,0.043-0.512,0.085-0.768,0.128v37.461c0,48.981-39.851,88.832-88.832,88.832H108.38
				c-0.043,0.256-0.085,0.512-0.128,0.768c-1.003,6.955-1.579,13.824-1.579,20.565s0.576,13.611,1.579,20.565
				c0.043,0.256,0.085,0.512,0.128,0.768h37.461c48.981,0,88.832,39.851,88.832,88.832v37.461c0.256,0.043,0.512,0.085,0.768,0.128
				c13.888,2.027,27.243,2.027,41.131,0c0.256-0.043,0.512-0.085,0.768-0.128v-37.461c0-48.981,39.851-88.832,88.832-88.832h37.461
				c0.043-0.256,0.085-0.512,0.128-0.768c1.003-6.955,1.579-13.824,1.579-20.565s-0.576-13.611-1.579-20.565
				C403.718,235.179,403.676,234.923,403.633,234.667z M256.006,277.333c-11.776,0-21.333-9.557-21.333-21.333
				s9.557-21.333,21.333-21.333c11.776,0,21.333,9.557,21.333,21.333S267.782,277.333,256.006,277.333z"/>
      <path d="M320.006,366.167v24.555c30.933-14.763,55.957-39.787,70.72-70.72h-24.555
				C340.721,320.002,320.006,340.717,320.006,366.167z"/>
      <path d="M256,0C114.859,0,0,114.837,0,256s114.859,256,256,256c141.163,0,256-114.837,256-256S397.163,0,256,0z M446.123,281.493
				c-1.003,7.403-2.432,14.656-4.245,21.781c-0.064,0.235-0.085,0.469-0.149,0.725l-4.117,16H436.8
				c-19.328,54.4-62.4,97.472-116.8,116.8v0.811l-16,4.117c-0.256,0.064-0.491,0.085-0.725,0.149
				c-7.125,1.813-14.379,3.243-21.781,4.224c-0.811,0.128-1.621,0.277-2.432,0.384C271.488,447.381,263.829,448,256,448
				c-7.808,0-15.467-0.619-23.04-1.515c-0.811-0.107-1.621-0.256-2.432-0.384c-7.424-0.981-14.677-2.411-21.781-4.224
				c-0.256-0.064-0.491-0.085-0.725-0.149L192,437.611V436.8C137.621,417.472,94.528,374.4,75.2,320h-0.789l-4.139-16
				c-0.064-0.256-0.064-0.491-0.128-0.725c-1.813-7.125-3.264-14.379-4.245-21.781c-0.107-0.832-0.277-1.643-0.363-2.453
				C64.619,271.467,64,263.808,64,256s0.619-15.467,1.536-23.04c0.085-0.811,0.256-1.621,0.363-2.453
				c0.981-7.403,2.432-14.656,4.245-21.781c0.064-0.235,0.064-0.469,0.128-0.725l4.139-16H75.2
				C94.528,137.6,137.621,94.528,192,75.2v-0.811l16.021-4.117c0.235-0.064,0.469-0.085,0.725-0.149
				c7.083-1.792,14.293-3.221,21.653-4.203c0.832-0.128,1.664-0.277,2.496-0.384C240.491,64.619,248.171,64,256,64
				c7.851,0,15.531,0.619,23.125,1.536c0.832,0.107,1.664,0.256,2.496,0.384c7.36,0.981,14.571,2.411,21.653,4.203
				c0.235,0.064,0.469,0.085,0.725,0.149l16,4.117V75.2c54.4,19.328,97.472,62.4,116.8,116.8h0.811l4.117,16
				c0.064,0.256,0.085,0.491,0.149,0.725c1.813,7.125,3.243,14.379,4.245,21.781c0.107,0.832,0.256,1.643,0.363,2.453
				C447.403,240.533,448,248.192,448,256s-0.597,15.467-1.515,23.04C446.379,279.851,446.229,280.661,446.123,281.493z"/>
    </g>

    <path id="hoja1" d="M 29 12 c 24 12 60 12 60 -12 c 0 -24 -36 -24 -60 -12 m 0 12 l 48 0 c 0 -3 -3 -6 -6 -6 c -3 0 -6 3 -6 6 c 0 3 3 6 6 6 c 3 0 6 -3 6 -6z"/>

    <path id="flor1" d="M 0 0 l 0 33 c 50 0 120 18 120 -33 m -120 0 l 0 -33 c 50 0 120 -18 120 33"/>

    <path id="cosa" d="M 0 0 l 0 17 l 48 7 l 4 -5 l -4 -2 l 0 2 l -9.728 -0.039 l -21.272 -4.961 l -6 -14 m -11 0 l 0 -17 l 48 -7 l 4 5 l -4 2 l 0 -2 l -9.728 0.039 l -21.272 4.961 l -6 14z"/>

    <g id = "flor2">
      <path d="M 60 0 l 0 55.2 q 47.4 -31.8 78 -1.8 c 31.2 35.4 65.4 -19.8 66 -53.4 m -144 0 l 0 -55.2 q 47.4 31.8 78 1.8 c 31.2 -35.4 65.4 19.8 66 53.4" fill="url(#1)"/>
      <path d="M 99 0 l 0 21 q 33 -8 47 3 c 15 13 38 -3 38 -24 m -85 0 l 0 -21 q 33 8 47 -3 c 15 -13 38 3 38 24" fill="#E2A7D7"/>
      <circle r="10" cx="207" fill="#F859A9"/>
      <circle r="14" cx="160" fill="url(#perla2)"/>
      <circle r="5" cx="135" fill="#D73CFF"/>
      <circle r="5" cx="120" fill="black"/>
    </g>

    <g id="florfin">
      <path d="M 160 0 l 0 76 c 71 17 120 -36 157 -76 m -157 0 l 0 -76 c 71 -17 120 36 157 76" fill="#420AC3"/>
      <path d="M 160 0 l 0 76 c 71 17 120 -36 157 -76 m -157 0 l 0 -76 c 71 -17 120 36 157 76" fill="#5B70FF" transform="rotate(-45)"/>
    </g>
    <g id="florfin2">
      <path d="M 170 0 l 0 38 c 35.5 8.5 60 -18 78.5 -38 m -78.5 0 l 0 -38 c 35.5 -8.5 60 18 78.5 38" fill="#5924B4"/>
      <path d="M 170 0 l 0 38 c 35.5 8.5 60 -18 78.5 -38 m -78.5 0 l 0 -38 c 35.5 -8.5 60 18 78.5 38" fill="#5924C2" transform="rotate(-45)"/>
    </g>

    <g id="florfin3">
      <path d="M 170 0 l 0 -36.48 c 46.56 -16.8 71.52 5.76 125.76 36.48 m -125.76 0 l 0 36.48 c 46.56 16.8 71.52 -5.76 125.76 -36.48" fill="#D671BD"/>
      <path d="M 170 0 l 0 -36.48 c 46.56 -16.8 71.52 5.76 125.76 36.48 m -125.76 0 l 0 36.48 c 46.56 16.8 71.52 -5.76 125.76 -36.48" fill="#DA8AC7" transform="rotate(-45)"/>

    </g>

    <g id="anilloybolas">
      <circle r="260" fill="#D73CFF"/>
      <circle r="245" fill="black"/>
      <circle r="15" cy="-252" fill="url(#perla)"/>
    </g>

    <mask id="masc">
      <circle r ="318" fill="white"/>
      <rect x="-400" y="0" width="800" stroke="none" height="500" fill="black" transform="rotate(67.5)"/>
      <rect x="-400" y="0" width="800" stroke="none" height="500" fill="black" transform="rotate(-67.5)"/>
    </mask>

    <radialGradient id="perla">
      <stop stop-color="#EDC4E2" offset="0%"/>
      <stop stop-color="#C2408A" offset="100%"/>
    </radialGradient>

    <radialGradient id="perla2">
      <stop stop-color="#450BBF" offset="0%"/>
      <stop stop-color="#5770FE" offset="100%"/>
    </radialGradient>

    <radialGradient id="gen">
      <stop stop-color="white" offset="0%"/>
      <stop stop-color="grey" offset="100%"/>
    </radialGradient>

    <mask id="som0" >
      <rect x="-100" width="200" height="500" fill="url(#chao)"/>
    </mask>

    <linearGradient id="chao">
      <stop stop-color="#black" offset="50%"/>
      <stop stop-color="#white" offset="100%"/>
    </linearGradient>

    <mask id="som1" >
      <circle r="318" fill="url(#gen)"/>
    </mask>

    <linearGradient id="1">
      <stop stop-color="#9E3B96" offset="50%"/>
      <stop stop-color="#4F3A97" offset="100%"/>
    </linearGradient>

    <linearGradient id="2">
      <stop stop-color="#C25493" offset="50%"/>
      <stop stop-color="#420AC3" offset="100%"/>
    </linearGradient>

    <linearGradient id="3" gradientTransform="rotate(90)">
      <stop stop-color="#CA40DB" offset="0%"/>
      <stop stop-color="#5B2690" offset="100%"/>
    </linearGradient>

    <g id="pieza" stroke="black">
      <use href="#anilloybolas"/>
      <use href="#florfin" transform="rotate(-67.5)"/>
      <use href="#florfin3" transform="rotate(-67.5)"/>
      <use href="#florfin2" transform="rotate(-67.5)"/>
      <use href="#flor2" transform="rotate(-90)"/>
      <use href="#flor1" transform="rotate(-90)" fill="url(#3)"/>
      <use href="#hoja1" transform="rotate(-90)" fill="url(#2)"/>
    </g>

  </defs>
  <rect x="-50%" y="-50%" width="100%" height="100%" fill="black"/>
  <g mask="url(#som1)">
    <use href="#pieza" mask="url(#masc)"/>
    <use href="#pieza" mask="url(#masc)" transform="rotate(45)"/>
    <use href="#pieza" mask="url(#masc)" transform="rotate(-45)"/>
    <use href="#pieza" mask="url(#masc)" transform="rotate(90)"/>
    <use href="#pieza" mask="url(#masc)" transform="rotate(-90)"/>
    <use href="#pieza" mask="url(#masc)" transform="rotate(135)"/>
    <use href="#pieza" mask="url(#masc)" transform="rotate(-135)"/>
    <use href="#pieza" mask="url(#masc)" transform="rotate(180)"/>
    <circle r="35" fill="url(#perla)" stroke="black"/>
    <use href="#lunita" transform="scale(0.1)" x="-255" y="-255"/>
  </g>

</svg>
